<svg xmlns="http://www.w3.org/2000/svg" xmlns:xlink="http://www.w3.org/1999/xlink" width="1080" zoomAndPan="magnify" viewBox="0 0 810 809.999993" height="1080" preserveAspectRatio="xMidYMid meet" version="1.0"><rect x="-81" width="972" fill="#ffffff" y="-80.999999" height="971.999992" fill-opacity="1"/><rect x="-81" width="972" fill="#ffffff" y="-80.999999" height="971.999992" fill-opacity="1"/><rect x="-81" width="972" fill="#ffffff" y="-80.999999" height="971.999992" fill-opacity="1"/><path fill="#000000" d="M 590.625 810 C 587.082031 810 583.539062 808.886719 580.535156 806.625 C 571.996094 800.28125 371.25 649.011719 371.25 527.546875 C 371.25 459.980469 426.195312 405 493.761719 405 C 532.238281 405 567.777344 422.921875 590.625 452.351562 C 613.441406 422.921875 648.980469 405 687.488281 405 C 755.054688 405 810 459.980469 810 527.546875 C 810 649.046875 609.253906 800.28125 600.714844 806.660156 C 597.710938 808.886719 594.167969 810 590.625 810 Z M 493.761719 438.75 C 444.824219 438.75 405 478.609375 405 527.546875 C 405 609.523438 530.652344 724.917969 590.625 771.863281 C 650.566406 724.882812 776.25 609.457031 776.25 527.546875 C 776.25 478.609375 736.425781 438.75 687.488281 438.75 C 652.082031 438.75 620.15625 459.640625 606.117188 491.972656 C 600.785156 504.292969 580.5 504.292969 575.167969 491.972656 C 561.09375 459.640625 529.167969 438.75 493.761719 438.75 Z M 493.761719 438.75 " fill-opacity="1" fill-rule="nonzero"/><path fill="#000000" d="M 320.625 675 L 168.75 675 C 131.523438 675 101.25 644.726562 101.25 607.5 L 101.25 371.25 L 33.75 371.25 C 14.816406 371.25 0 356.433594 0 337.5 C 0 328.015625 4.117188 318.632812 11.003906 312.457031 L 342.898438 4.523438 C 349.347656 -1.484375 359.371094 -1.484375 365.851562 4.523438 L 472.5 103.410156 L 472.5 50.625 C 472.5 41.308594 480.058594 33.75 489.375 33.75 L 590.625 33.75 C 599.941406 33.75 607.5 41.308594 607.5 50.625 L 607.5 228.554688 L 693.257812 308.238281 C 700.078125 314.582031 700.480469 325.25 694.136719 332.101562 C 687.792969 338.917969 677.09375 339.324219 670.273438 332.945312 L 579.148438 248.230469 C 575.707031 245.09375 573.75 240.605469 573.75 235.914062 L 573.75 67.5 L 506.25 67.5 L 506.25 142.085938 C 506.25 148.804688 502.265625 154.878906 496.125 157.546875 C 489.949219 160.246094 482.792969 159.03125 477.898438 154.441406 L 354.375 39.890625 L 33.75 337.363281 L 118.125 337.5 C 127.441406 337.5 135 345.058594 135 354.375 L 135 607.5 C 135 626.128906 150.152344 641.25 168.75 641.25 L 320.625 641.25 C 329.941406 641.25 337.5 648.808594 337.5 658.125 C 337.5 667.441406 329.941406 675 320.625 675 Z M 320.625 675 " fill-opacity="1" fill-rule="nonzero"/></svg>